<?xml version="1.0" encoding="utf-8"?>
<!-- Generator: Adobe Illustrator 26.0.2, SVG Export Plug-In . SVG Version: 6.00 Build 0)  -->
<svg version="1.1" id="svg6218" xmlns:svg="http://www.w3.org/2000/svg"
	 xmlns="http://www.w3.org/2000/svg" xmlns:xlink="http://www.w3.org/1999/xlink" x="0px" y="0px" viewBox="0 0 340 187"
	 style="enable-background:new 0 0 340 187;" xml:space="preserve">
<style type="text/css">
	.st0{opacity:0.3;fill:#FFFFFF;}
	.st1{fill:#333333;}
	.st2{fill:#CC9900;stroke:#676767;stroke-width:0.6167;stroke-linecap:round;stroke-miterlimit:3.6733;}
	.st3{fill:#FFFFCC;}
	.st4{fill:#CC6633;stroke:#676767;stroke-width:0.6168;stroke-linecap:round;stroke-miterlimit:3.6733;}
	.st5{fill:#FFCC99;}
	.st6{fill:#CC3333;stroke:#676767;stroke-width:0.6167;stroke-linecap:round;stroke-miterlimit:3.6733;}
	.st7{fill:#FFCCCC;}
	.st8{fill:none;stroke:#000000;stroke-width:0.5894;stroke-miterlimit:10;}
	.st9{stroke:#676767;stroke-width:0.6167;stroke-linecap:round;stroke-miterlimit:3.6733;}
	.st10{fill:#FFFFFF;}
	.st11{fill:#CC3333;}
	.st12{font-family:'Bebas+Neue', serif; font-style:italic;}
	.st13{font-size:17.6809px;}
	.st14{fill:#006666;stroke:#676767;stroke-width:0.6167;stroke-linecap:round;stroke-miterlimit:3.6733;}
	.st15{fill:#99CC99;}
	.st16{font-family:'Bebas+Neue', serif;  font-weight:bold;}
	.st17{font-size:20.0384px;}
</style>
<g>
	<polygon class="st0" points="237.3,183.8 105.1,183.8 105.1,38.3 109.3,34.6 162.4,34.6 170.3,31.1 180.2,34.6 231.1,34.6 
		233.1,34.6 237.3,38.7 	"/>
	<path id="JasmineUPC_bracket_00000183962092511342494420000008201908423333086639_" class="st1" d="M122.3,35.7
		c-4.9,0-8.7,0.3-11.5,0.8c-2.8,0.6-4.8,1.5-5.9,2.8c0-1.8,0.8-3.2,2.3-4.2c1.6-1,4-1.7,7.3-2c3.3-0.4,7.8-0.6,13.4-0.6h25.7
		c3.4,0,6.2-0.1,8.2-0.2c2-0.2,3.8-0.5,5.4-1.1c2.1-0.9,3.2-1.7,3.4-2.5c1,1.2,2.8,2.1,5.6,2.8c2.6,0.6,6.5,1,11.7,1h29.1
		c8.3,0,13.8,0.6,16.5,1.7c2.7,1.1,4.1,2.8,4.1,5.1c-1.5-1.4-3.5-2.3-6.1-2.9c-2.6-0.5-6.4-0.8-11.3-0.8h-29.6
		c-5.8,0-10.3-0.3-13.4-0.8c-3.1-0.6-5.3-1.6-6.5-3.2c-1.1,1.6-3.4,2.7-6.7,3.3c-3.3,0.5-8.1,0.8-14.4,0.8H122.3z"/>
	<g>
		<text transform="matrix(0.9 0 0 1 115.2463 108.7634)"><tspan x="0" y="0" class="st12 st13">Quasi</tspan><tspan x="0" y="19" class="st12 st13">menacée</tspan></text>
	</g>
	<g>
		<text transform="matrix(0.9 0 0 1 128.3137 152.1404)"><tspan x="0" y="0" class="st12 st13">Préoccupation</tspan><tspan x="48.1" y="19" class="st12 st13">mineure</tspan></text>
	</g>
	<g>
		<g>
			<path id="path13414" class="st14" d="M158.7,63.8c0,8.4-6.8,15.2-15.2,15.2s-15.2-6.8-15.2-15.2s6.8-15.2,15.2-15.2
				S158.7,55.5,158.7,63.8z"/>
			<path id="text1899" class="st15" d="M144.2,69.2h-2v-3.8c0-0.8,0-1.3-0.1-1.5c-0.1-0.2-0.2-0.4-0.4-0.5c-0.2-0.1-0.4-0.2-0.7-0.2
				c-0.3,0-0.7,0.1-0.9,0.3c-0.3,0.2-0.5,0.4-0.6,0.7c-0.1,0.3-0.2,0.9-0.2,1.7v3.4h-2v-7.4h1.9v1.1c0.7-0.8,1.5-1.3,2.5-1.3
				c0.4,0,0.9,0.1,1.2,0.2c0.4,0.2,0.6,0.4,0.8,0.6c0.2,0.2,0.3,0.5,0.4,0.8c0.1,0.3,0.1,0.7,0.1,1.3V69.2z M149.7,61.8v1.6h-1.4v3
				c0,0.6,0,1,0,1.1c0,0.1,0.1,0.2,0.2,0.2c0.1,0.1,0.2,0.1,0.3,0.1c0.2,0,0.5-0.1,0.8-0.2l0.2,1.5c-0.5,0.2-1,0.3-1.6,0.3
				c-0.4,0-0.7-0.1-1-0.2c-0.3-0.1-0.5-0.3-0.6-0.5c-0.1-0.2-0.2-0.4-0.3-0.8c0-0.2-0.1-0.7-0.1-1.4v-3.2h-0.9v-1.6h0.9v-1.5l2-1.1
				v2.6H149.7z"/>
		</g>
		<g>
			<path id="path2072" class="st14" d="M211.6,63.8c0,8.4-6.8,15.2-15.2,15.2c-8.4,0-15.2-6.8-15.2-15.2s6.8-15.2,15.2-15.2
				C204.8,48.7,211.6,55.5,211.6,63.8z"/>
			<path id="text3021" class="st10" d="M191,69.2V58.9h2v10.2H191z M201.7,63.9l-2,0.3c-0.1-0.4-0.2-0.7-0.5-0.9
				c-0.2-0.2-0.5-0.3-0.9-0.3c-0.5,0-0.9,0.2-1.2,0.5c-0.3,0.3-0.4,0.9-0.4,1.7c0,0.9,0.2,1.5,0.5,1.9s0.7,0.5,1.2,0.5
				c0.4,0,0.7-0.1,0.9-0.3c0.2-0.2,0.4-0.6,0.5-1.1l2,0.3c-0.2,0.9-0.6,1.5-1.2,2c-0.6,0.5-1.4,0.7-2.3,0.7c-1.1,0-2-0.3-2.7-1
				c-0.7-0.7-1-1.6-1-2.8c0-1.2,0.3-2.2,1-2.9c0.7-0.7,1.6-1,2.7-1c0.9,0,1.7,0.2,2.2,0.6C201.1,62.6,201.5,63.1,201.7,63.9
				L201.7,63.9z"/>
		</g>
		<line class="st8" x1="143.6" y1="79" x2="143.6" y2="94.5"/>
		<line class="st8" x1="196.4" y1="137.5" x2="196.4" y2="79.2"/>
	</g>
	<g>
		<text transform="matrix(1 0 0 1 100.423 23.0652)" class="st16 st17">Risque moindre</text>
	</g>
</g>
</svg>
