<?xml version="1.0" encoding="utf-8"?>
<!-- Generator: Adobe Illustrator 26.0.2, SVG Export Plug-In . SVG Version: 6.00 Build 0)  -->
<svg version="1.1" id="svg6218" xmlns:svg="http://www.w3.org/2000/svg"
	 xmlns="http://www.w3.org/2000/svg" xmlns:xlink="http://www.w3.org/1999/xlink" x="0px" y="0px" viewBox="0 0 340 187"
	 style="enable-background:new 0 0 340 187;" xml:space="preserve">
<style type="text/css">
	.st0{opacity:0.3;fill:#FFFFFF;}
	.st1{fill:#333333;}
	.st2{font-family:'Bebas+Neue', serif; font-style:italic;}
	.st3{font-size:17.6809px;}
	.st4{fill:#CC9900;stroke:#676767;stroke-width:0.6167;stroke-linecap:round;stroke-miterlimit:3.6733;}
	.st5{fill:#FFFFCC;}
	.st6{fill:#CC6633;stroke:#676767;stroke-width:0.6168;stroke-linecap:round;stroke-miterlimit:3.6733;}
	.st7{fill:#FFCC99;}
	.st8{fill:#CC3333;stroke:#676767;stroke-width:0.6167;stroke-linecap:round;stroke-miterlimit:3.6733;}
	.st9{fill:#FFCCCC;}
	.st10{fill:none;stroke:#000000;stroke-width:0.5894;stroke-miterlimit:10;}
	.st11{font-family:'Bebas+Neue', serif;  font-weight:bold;}
	.st12{font-size:20.0384px;}
	.st13{stroke:#676767;stroke-width:0.6167;stroke-linecap:round;stroke-miterlimit:3.6733;}
	.st14{fill:#FFFFFF;}
	.st15{fill:#CC3333;}
	.st16{fill:#006666;stroke:#676767;stroke-width:0.6167;stroke-linecap:round;stroke-miterlimit:3.6733;}
	.st17{fill:#99CC99;}
</style>
<g>
	<g>
		<polygon class="st0" points="331.4,183.4 152.4,183.4 152.4,38 157,34.3 233.1,34.3 241,30.8 250.8,34.3 324.8,34.3 326.7,34.3 
			331.4,38.8 		"/>
		<path id="JasmineUPC_bracket" class="st1" d="M175.9,35.4c-6.6,0-11.8,0.3-15.6,0.8c-3.8,0.6-6.5,1.5-8,2.8c0-1.8,1.1-3.2,3.2-4.2
			c2.1-1,5.4-1.7,9.9-2c4.5-0.4,10.5-0.6,18.1-0.6h34.7c4.6,0,8.3-0.1,11-0.2c2.7-0.2,5.2-0.5,7.4-1.1c2.8-0.9,4.3-1.7,4.6-2.5
			c1.3,1.2,3.8,2.1,7.5,2.8c3.5,0.6,8.8,1,15.8,1h39.3c11.3,0,18.7,0.6,22.3,1.7c3.7,1.1,5.5,2.8,5.5,5.1c-2-1.4-4.7-2.3-8.3-2.9
			c-3.5-0.5-8.6-0.8-15.2-0.8h-40c-7.9,0-13.9-0.3-18.1-0.8c-4.2-0.6-7.1-1.6-8.8-3.2c-1.5,1.6-4.5,2.7-9,3.3
			c-4.5,0.5-10.9,0.8-19.5,0.8H175.9z"/>
		<text transform="matrix(0.9 0 0 1 251.5545 152.8533)" class="st2 st3">Vulnérable</text>
		<g>
			<text transform="matrix(0.9 0 0 1 161.4568 132.031)"><tspan x="0" y="0" class="st2 st3">En danger</tspan><tspan x="0" y="19" class="st2 st3">critique</tspan><tspan x="0" y="38" class="st2 st3">d&apos;extinction</tspan></text>
		</g>
		<text transform="matrix(0.9 0 0 1 209.3123 110.4568)" class="st2 st3">En danger</text>
		<g>
			<g>
				<path id="path13412" class="st4" d="M309.1,65.2c0,8.4-6.8,15.2-15.2,15.2s-15.2-6.8-15.2-15.2S285.5,50,293.9,50
					S309.1,56.8,309.1,65.2z"/>
				<path id="text13426" class="st5" d="M288,70.5l-3.8-10.2h2.3l2.7,7.6l2.6-7.6h2.3l-3.8,10.2H288z M295.1,60.3h2.1v5.5
					c0,0.9,0,1.4,0.1,1.7c0.1,0.4,0.3,0.8,0.6,1s0.8,0.4,1.4,0.4c0.6,0,1.1-0.1,1.4-0.4c0.3-0.2,0.5-0.5,0.6-0.9s0.1-0.9,0.1-1.7
					v-5.6h2.1v5.4c0,1.2-0.1,2.1-0.2,2.6s-0.3,0.9-0.6,1.3c-0.3,0.3-0.7,0.6-1.2,0.8c-0.5,0.2-1.2,0.3-2,0.3c-1,0-1.8-0.1-2.3-0.3
					c-0.5-0.2-0.9-0.5-1.2-0.9c-0.3-0.4-0.5-0.7-0.6-1.1c-0.1-0.6-0.2-1.4-0.2-2.6V60.3z"/>
			</g>
			<g>
				<path id="path13410" class="st6" d="M257.6,65.2c0,8.4-6.8,15.2-15.2,15.2c-8.4,0-15.2-6.8-15.2-15.2S234.1,50,242.4,50
					C250.8,50,257.6,56.8,257.6,65.2z"/>
				<path id="text13430" class="st7" d="M233.4,70.5V60.3h7.8V62h-5.7v2.3h5.3V66h-5.3v2.8h5.9v1.7H233.4z M243.2,70.5V60.3h2.1
					l4.3,6.8v-6.8h2v10.2h-2.1l-4.2-6.7v6.7H243.2z"/>
			</g>
			<g>
				<path id="path13408" class="st8" d="M206.1,65.2c0,8.4-6.8,15.2-15.2,15.2c-8.4,0-15.2-6.8-15.2-15.2S182.6,50,190.9,50
					C199.3,50,206.1,56.8,206.1,65.2z"/>
				<path id="text13442" class="st9" d="M187.8,66.7l2.1,0.6c-0.3,1.1-0.8,1.9-1.6,2.5c-0.7,0.5-1.7,0.8-2.8,0.8
					c-1.4,0-2.5-0.5-3.4-1.4c-0.9-0.9-1.3-2.2-1.3-3.8c0-1.7,0.5-3,1.4-4c0.9-0.9,2.1-1.4,3.6-1.4c1.3,0,2.3,0.4,3.1,1.1
					c0.5,0.4,0.8,1.1,1.1,1.9l-2.1,0.5c-0.1-0.5-0.4-0.9-0.8-1.3c-0.4-0.3-0.9-0.5-1.4-0.5c-0.8,0-1.4,0.3-1.9,0.8
					c-0.5,0.5-0.7,1.4-0.7,2.6c0,1.3,0.2,2.2,0.7,2.8s1.1,0.8,1.9,0.8c0.6,0,1-0.2,1.5-0.5C187.3,68,187.6,67.5,187.8,66.7
					L187.8,66.7z M191.7,70.5V60.3h4.5c1.1,0,1.9,0.1,2.4,0.3c0.5,0.2,0.9,0.5,1.2,1c0.3,0.5,0.5,1,0.5,1.6c0,0.8-0.2,1.4-0.7,1.9
					c-0.5,0.5-1.2,0.8-2.1,0.9c0.5,0.3,0.8,0.5,1.1,0.9c0.3,0.3,0.7,0.9,1.2,1.7l1.3,2h-2.5l-1.5-2.2c-0.5-0.8-0.9-1.3-1.1-1.5
					c-0.2-0.2-0.4-0.3-0.6-0.4c-0.2-0.1-0.6-0.1-1.1-0.1h-0.4v4.3H191.7z M193.8,64.6h1.6c1,0,1.7,0,1.9-0.1
					c0.3-0.1,0.5-0.2,0.6-0.4c0.1-0.2,0.2-0.5,0.2-0.8c0-0.3-0.1-0.6-0.3-0.8c-0.2-0.2-0.5-0.3-0.8-0.4c-0.2,0-0.7,0-1.5,0h-1.7
					V64.6z"/>
			</g>
			<line class="st10" x1="293.9" y1="80.1" x2="293.9" y2="137.2"/>
			<line class="st10" x1="190.1" y1="80.4" x2="190.1" y2="113.8"/>
			<line class="st10" x1="242.4" y1="96.5" x2="242.4" y2="80.3"/>
		</g>
		<g>
			<text transform="matrix(1 0 0 1 204.7781 22.7586)" class="st11 st12">Menacé</text>
		</g>
	</g>
	<g>
		<polygon class="st0" points="141.4,183.6 9.3,183.6 9.3,38.1 13.4,34.5 66.5,34.5 74.4,30.9 84.3,34.5 135.2,34.5 137.2,34.5 
			141.4,38.5 		"/>
		<path id="JasmineUPC_bracket_00000137100359014030561760000015095619018842295198_" class="st1" d="M26.3,35.5
			c-4.9,0-8.7,0.3-11.5,0.8c-2.8,0.6-4.8,1.5-5.9,2.8c0-1.8,0.8-3.2,2.3-4.2c1.6-1,4-1.7,7.3-2c3.3-0.4,7.8-0.6,13.4-0.6h25.7
			c3.4,0,6.2-0.1,8.2-0.2c2-0.2,3.8-0.5,5.4-1.1c2.1-0.9,3.2-1.7,3.4-2.5c1,1.2,2.8,2.1,5.6,2.8c2.6,0.6,6.5,1,11.7,1h29.1
			c8.3,0,13.8,0.6,16.5,1.7c2.7,1.1,4.1,2.8,4.1,5.1c-1.5-1.4-3.5-2.3-6.1-2.9c-2.6-0.5-6.4-0.8-11.3-0.8H94.5
			c-5.8,0-10.3-0.3-13.4-0.8c-3.1-0.6-5.3-1.6-6.5-3.2c-1.1,1.6-3.4,2.7-6.7,3.3c-3.3,0.5-8.1,0.8-14.4,0.8H26.3z"/>
		<text transform="matrix(0.9 0 0 1 88.6659 109.4392)"><tspan x="0" y="0" class="st2 st3">Éteint</tspan><tspan x="-6.5" y="19" class="st2 st3">à l&apos;état</tspan><tspan x="-20.3" y="38" class="st2 st3">sauvage</tspan></text>
		<g>
			<g>
				<path id="path13406" class="st13" d="M116.3,63.5c0,8.4-6.8,15.2-15.2,15.2S86,71.8,86,63.5s6.8-15.2,15.2-15.2
					S116.3,55.1,116.3,63.5z"/>
				<path id="text13438" class="st14" d="M89.9,68.8V58.6h7.8v1.7H92v2.3h5.3v1.7H92v2.8h5.9v1.7H89.9z M101.2,68.8l-2.5-10.2h2.2
					l1.6,7l1.9-7h2.5l1.8,7.1l1.6-7.1h2.1l-2.6,10.2h-2.3l-2.1-7.6l-2.1,7.6H101.2z"/>
			</g>
			<g>
				<path id="path13404" class="st13" d="M61.4,64.5c0,8.4-6.8,15.2-15.2,15.2s-15.2-6.8-15.2-15.2s6.8-15.2,15.2-15.2
					S61.4,56.1,61.4,64.5z"/>
				<path id="text13434" class="st15" d="M37,69.8V59.6h7.8v1.7h-5.7v2.3h5.3v1.7h-5.3v2.8H45v1.7H37z M45.8,69.8l3.6-5.3l-3.3-4.9
					h2.5l2.1,3.3l2.1-3.3h2.5l-3.3,5l3.6,5.3H53l-2.3-3.5l-2.3,3.5H45.8z"/>
			</g>
			<line class="st10" x1="101.2" y1="78.5" x2="101.2" y2="94.3"/>
			<line class="st10" x1="46.3" y1="79.7" x2="46.3" y2="94.3"/>
		</g>
		<text transform="matrix(0.9 0 0 1 22.2372 109.4392)" class="st2 st3">Éteint</text>
		<g>
			<text transform="matrix(1 0 0 1 50.0824 22.8904)" class="st11 st12">Éteint</text>
		</g>
	</g>
</g>
</svg>
